<?xml version="1.0" encoding="UTF-8"?>
<!DOCTYPE svg PUBLIC '-//W3C//DTD SVG 1.1//EN' 'http://www.w3.org/Graphics/SVG/1.1/DTD/svg11.dtd'>
<svg width="60" height="60" viewBox="0 0 256 256" xmlns="http://www.w3.org/2000/svg" xmlns:xlink="http://www.w3.org/1999/xlink">
 <linearGradient id="d" gradientUnits="userSpaceOnUse">
  <stop stop-color="#ffdf8e" offset="0"/>
  <stop stop-color="#ffc44b" offset="1"/>
 </linearGradient>
 <linearGradient id="c" gradientUnits="userSpaceOnUse">
  <stop stop-color="#ffc057" offset="0"/>
  <stop stop-color="#ffe6a8" offset="1"/>
 </linearGradient>
 <linearGradient id="b" gradientUnits="userSpaceOnUse">
  <stop stop-color="#ffc560" offset="0"/>
  <stop stop-color="#ffffdb" offset="1"/>
 </linearGradient>
 <linearGradient id="a" gradientUnits="userSpaceOnUse">
  <stop stop-color="#fffad1" offset="0"/>
  <stop stop-color="#ffb82d" offset="1"/>
 </linearGradient>
 <linearGradient id="aR" x1="59.42" x2="98.02" y1="123.84" y2="81.29" xlink:href="#a"/>
 <linearGradient id="aO" x1="59.27" x2="30.28" y1="122.9" y2="77.77" xlink:href="#a"/>
 <linearGradient id="aT" x1="69.76" x2="107.67" y1="89.3" y2="68.98" xlink:href="#b"/>
 <linearGradient id="aV" x1="48.83" x2="22.35" y1="86.25" y2="60.06" xlink:href="#b"/>
 <linearGradient id="aZ" x1="99.62" x2="100.06" y1="66.77" y2="47.65" xlink:href="#c"/>
 <linearGradient id="aX" x1="19.27" x2="68.92" y1="41.51" y2="41.51" xlink:href="#c"/>
 <linearGradient id="aQ" x1="67.93" x2="99.92" y1="69.57" y2="69.57" xlink:href="#d"/>
 <linearGradient id="aN" x1="68.06" x2="28.62" y1="73.11" y2="72.25" xlink:href="#d"/>
 <linearGradient id="aW" x1="13.96" x2="60.14" y1="58.19" y2="90" gradientUnits="userSpaceOnUse">
  <stop stop-color="#de972b" offset="0"/>
  <stop stop-color="#ad7129" offset="1"/>
 </linearGradient>
 <linearGradient id="aU" x1="58.16" x2="119.1" y1="78.97" y2="78.97" gradientUnits="userSpaceOnUse">
  <stop stop-color="#ae7229" offset="0"/>
  <stop stop-color="#7f4d27" offset="1"/>
 </linearGradient>
 <linearGradient id="ba" x1="86.6" x2="86.57" y1="68.11" y2="47.99" gradientUnits="userSpaceOnUse">
  <stop stop-color="#8b5627" offset="0"/>
  <stop stop-color="#ab7029" stop-opacity=".98" offset="1"/>
 </linearGradient>
 <linearGradient id="aY" x1="33.65" x2="33.56" y1="60.42" y2="40.3" gradientUnits="userSpaceOnUse">
  <stop stop-color="#d08c2a" offset="0"/>
  <stop stop-color="#de972b" offset="1"/>
 </linearGradient>
 <linearGradient id="aP" x1="44.06" x2="44.66" y1="76.52" y2="122.48" gradientUnits="userSpaceOnUse">
  <stop stop-color="#dc952b" offset="0"/>
  <stop stop-color="#784726" offset="1"/>
 </linearGradient>
 <linearGradient id="aS" x1="78.2" x2="78.59" y1="123.45" y2="79.52" gradientUnits="userSpaceOnUse">
  <stop stop-color="#784726" offset="0"/>
  <stop stop-color="#8d5828" offset="1"/>
 </linearGradient>
 <linearGradient id="bb" x1="59.64" x2="59.32" y1="119.8" y2="97.82" gradientUnits="userSpaceOnUse">
  <stop stop-color="#ffbe70" offset="0"/>
  <stop stop-color="#ffbd70" stop-opacity="0" offset="1"/>
 </linearGradient>
 <linearGradient id="bf" x1="64.46" x2="63.75" y1="71.18" y2="6.48" gradientUnits="userSpaceOnUse">
  <stop stop-color="#004e00" offset="0"/>
  <stop stop-color="#1fd000" offset="1"/>
 </linearGradient>
 <linearGradient id="be" x1="60.86" x2="60.01" y1="71.18" y2="6.48" gradientUnits="userSpaceOnUse">
  <stop stop-color="#007e00" offset="0"/>
  <stop stop-color="#00fa00" offset=".715"/>
  <stop stop-color="#ecffec" offset="1"/>
 </linearGradient>
 <linearGradient id="bd" x1="64.46" x2="63.75" y1="71.18" y2="6.48" gradientUnits="userSpaceOnUse">
  <stop stop-color="#fff" offset="0"/>
  <stop stop-color="#fff" offset="1"/>
 </linearGradient>
 <filter id="bc" x="-.25" y="-.25" width="1.5" height="1.5" color-interpolation-filters="sRGB">
  <feGaussianBlur in="SourceAlpha" result="blur" stdDeviation="2"/>
  <feColorMatrix result="bluralpha" values="1 0 0 0 0 0 1 0 0 0 0 0 1 0 0 0 0 0 0.5 0"/>
  <feOffset dx="2" dy="2" in="bluralpha" result="offsetBlur"/>
  <feMerge>
   <feMergeNode in="offsetBlur"/>
   <feMergeNode in="SourceGraphic"/>
  </feMerge>
 </filter>
 <filter id="aM" x="-.25" y="-.25" width="1.5" height="1.5" color-interpolation-filters="sRGB">
  <feGaussianBlur in="SourceAlpha" result="blur" stdDeviation="2"/>
  <feColorMatrix result="bluralpha" values="1 0 0 0 0 0 1 0 0 0 0 0 1 0 0 0 0 0 0.5 0"/>
  <feOffset dx="2" dy="2" in="bluralpha" result="offsetBlur"/>
  <feMerge>
   <feMergeNode in="offsetBlur"/>
   <feMergeNode in="SourceGraphic"/>
  </feMerge>
 </filter>
 <linearGradient id="e" gradientUnits="userSpaceOnUse">
  <stop stop-color="#dadada" offset="0"/>
  <stop stop-color="#b6b6b6" offset="1"/>
 </linearGradient>
 <linearGradient id="z" x1="60.37" x2="116.02" y1="135.91" y2="135.91" gradientTransform="scale(-1) rotate(7.793 2216.7 -1499.7)" xlink:href="#e"/>
 <linearGradient id="f" gradientUnits="userSpaceOnUse">
  <stop stop-color="#b6b6b6" offset="0"/>
  <stop stop-color="#f0f0f0" offset="1"/>
 </linearGradient>
 <linearGradient id="A" x1="51.42" x2="92.13" y1="169.91" y2="169.91" gradientTransform="scale(-1) rotate(7.793 2216.7 -1499.7)" xlink:href="#f"/>
 <linearGradient id="B" x1="83.35" x2="128.53" y1="180.69" y2="180.69" gradientTransform="scale(-1) rotate(7.793 2216.7 -1499.7)" xlink:href="#f"/>
 <linearGradient id="g" gradientUnits="userSpaceOnUse">
  <stop stop-color="#616161" offset="0"/>
  <stop stop-color="#f0f0f0" offset="1"/>
 </linearGradient>
 <linearGradient id="C" x1="68.8" x2="146.22" y1="143.38" y2="143.38" gradientTransform="scale(-1) rotate(7.793 2216.7 -1499.7)" xlink:href="#g"/>
 <linearGradient id="h" gradientUnits="userSpaceOnUse">
  <stop stop-color="#494949" offset="0"/>
  <stop stop-color="#c4cbcb" offset="1"/>
 </linearGradient>
 <linearGradient id="D" x1="57.74" x2="143.75" y1="160.54" y2="160.54" gradientTransform="scale(-1) rotate(7.793 2216.7 -1499.7)" xlink:href="#h"/>
 <linearGradient id="i" gradientUnits="userSpaceOnUse">
  <stop stop-color="#dadada" offset="0"/>
  <stop stop-color="#f0f0f0" offset="1"/>
 </linearGradient>
 <linearGradient id="H" x1="51.54" x2="73.05" y1="133.41" y2="133.41" gradientTransform="scale(-1) rotate(7.793 2216.7 -1499.7)" xlink:href="#i"/>
 <linearGradient id="j" gradientUnits="userSpaceOnUse">
  <stop stop-color="#828282" offset="0"/>
  <stop stop-color="#f0f0f0" offset="1"/>
 </linearGradient>
 <linearGradient id="I" x1="112.66" x2="145" y1="164.32" y2="164.32" gradientTransform="scale(-1) rotate(7.793 2216.7 -1499.7)" xlink:href="#j"/>
 <linearGradient id="J" x1="51.7" x2="73.05" y1="123.75" y2="123.75" gradientTransform="scale(-1) rotate(7.793 2216.7 -1499.7)" xlink:href="#e"/>
 <linearGradient id="K" x1="68.95" x2="111.82" y1="117.14" y2="117.14" gradientTransform="scale(-1) rotate(7.793 2216.7 -1499.7)" xlink:href="#e"/>
 <linearGradient id="L" x1="43.17" x2="101.07" y1="121.7" y2="121.7" gradientTransform="scale(-1) rotate(7.793 2216.7 -1499.7)" xlink:href="#i"/>
 <linearGradient id="M" x1="64.09" x2="102.81" y1="181.84" y2="181.84" gradientTransform="scale(-1) rotate(7.793 2216.7 -1499.7)" xlink:href="#i"/>
 <linearGradient id="N" x1="89.29" x2="89.29" y1="116.53" y2="102.42" gradientTransform="scale(-1) rotate(7.793 2216.7 -1499.7)" xlink:href="#i"/>
 <linearGradient id="k" gradientUnits="userSpaceOnUse">
  <stop stop-color="#b6b6b6" offset=".612"/>
  <stop stop-color="#f0f0f0" offset="1"/>
 </linearGradient>
 <linearGradient id="O" x1="64.09" x2="103.65" y1="166.79" y2="166.79" gradientTransform="scale(-1) rotate(7.793 2216.7 -1499.7)" xlink:href="#k"/>
 <linearGradient id="l" gradientUnits="userSpaceOnUse">
  <stop stop-color="#b6b6b6" offset="0"/>
  <stop stop-color="#cacaca" offset=".197"/>
  <stop stop-color="#dfdfdf" offset=".474"/>
  <stop stop-color="#ececec" offset=".745"/>
  <stop stop-color="#f0f0f0" offset="1"/>
 </linearGradient>
 <linearGradient id="P" x1="121.8" x2="121.8" y1="186.78" y2="135.68" gradientTransform="scale(-1) rotate(7.793 2216.7 -1499.7)" xlink:href="#l"/>
 <linearGradient id="Q" x1="140.82" x2="107.89" y1="153.75" y2="120.82" gradientTransform="scale(-1) rotate(7.793 2216.7 -1499.7)" xlink:href="#f"/>
 <linearGradient id="S" x1="112.77" x2="158.66" y1="141.53" y2="141.53" gradientTransform="matrix(.266 -.958 1.0022 .2783 -39.1 268.14)" xlink:href="#e"/>
 <linearGradient id="T" x1="106.26" x2="139.76" y1="173.59" y2="173.59" gradientTransform="matrix(.266 -.958 1.0022 .2783 -39.1 268.14)" xlink:href="#f"/>
 <linearGradient id="U" x1="132.94" x2="170.31" y1="184.47" y2="184.47" gradientTransform="matrix(.266 -.958 1.0022 .2783 -39.1 268.14)" xlink:href="#f"/>
 <linearGradient id="V" x1="119.59" x2="183.7" y1="149.57" y2="149.57" gradientTransform="matrix(.266 -.958 1.0022 .2783 -39.1 268.14)" xlink:href="#g"/>
 <linearGradient id="W" x1="111.22" x2="182.48" y1="165.57" y2="165.57" gradientTransform="matrix(.266 -.958 1.0022 .2783 -39.1 268.14)" xlink:href="#h"/>
 <linearGradient id="aa" x1="105.14" x2="122.77" y1="139.24" y2="139.24" gradientTransform="matrix(.266 -.958 1.0022 .2783 -39.1 268.14)" xlink:href="#i"/>
 <linearGradient id="ab" x1="156.75" x2="183.52" y1="169.79" y2="169.79" gradientTransform="matrix(.266 -.958 1.0022 .2783 -39.1 268.14)" xlink:href="#j"/>
 <linearGradient id="ac" x1="105.14" x2="122.77" y1="130.24" y2="130.24" gradientTransform="matrix(.266 -.958 1.0022 .2783 -39.1 268.14)" xlink:href="#e"/>
 <linearGradient id="ad" x1="119.33" x2="155.19" y1="124.34" y2="124.34" gradientTransform="matrix(.266 -.958 1.0022 .2783 -39.1 268.14)" xlink:href="#e"/>
 <linearGradient id="ae" x1="97.9" x2="146.27" y1="128.2" y2="128.2" gradientTransform="matrix(.266 -.958 1.0022 .2783 -39.1 268.14)" xlink:href="#i"/>
 <linearGradient id="af" x1="116.74" x2="148.78" y1="185.19" y2="185.19" gradientTransform="matrix(.266 -.958 1.0022 .2783 -39.1 268.14)" xlink:href="#i"/>
 <linearGradient id="ag" x1="136.19" x2="136.19" y1="123.42" y2="110.54" gradientTransform="matrix(.266 -.958 1.0022 .2783 -39.1 268.14)" xlink:href="#i"/>
 <linearGradient id="ah" x1="116.74" x2="149.41" y1="170.68" y2="170.68" gradientTransform="matrix(.266 -.958 1.0022 .2783 -39.1 268.14)" xlink:href="#k"/>
 <linearGradient id="ai" x1="164.57" x2="164.57" y1="190.07" y2="142.41" gradientTransform="matrix(.266 -.958 1.0022 .2783 -39.1 268.14)" xlink:href="#l"/>
 <linearGradient id="aj" x1="181.94" x2="152.17" y1="159.63" y2="129.86" gradientTransform="matrix(.266 -.958 1.0022 .2783 -39.1 268.14)" xlink:href="#f"/>
 <linearGradient id="al" x1="89.11" x2="152.79" y1="84.74" y2="84.74" xlink:href="#e"/>
 <linearGradient id="aq" x1="71.67" x2="146.77" y1="95.56" y2="95.56" xlink:href="#f"/>
 <linearGradient id="av" x1="78.99" x2="103.41" y1="71.91" y2="71.91" xlink:href="#e"/>
 <linearGradient id="aw" x1="98.69" x2="147.97" y1="65.03" y2="65.03" xlink:href="#e"/>
 <linearGradient id="ax" x1="69.13" x2="135.65" y1="69.6" y2="69.6" xlink:href="#i"/>
 <linearGradient id="az" x1="122.01" x2="122.01" y1="64.24" y2="49.43" xlink:href="#i"/>
 <linearGradient id="aL" x1="89.52" x2="171.04" y1="27.43" y2="108.95" gradientUnits="userSpaceOnUse">
  <stop stop-color="#9cf" offset="0"/>
  <stop stop-color="#428aff" offset="1"/>
 </linearGradient>
 <linearGradient id="m" gradientUnits="userSpaceOnUse">
  <stop stop-color="#fff" offset="0"/>
  <stop stop-color="#94caff" offset="1"/>
 </linearGradient>
 <linearGradient id="aK" x1="60.1" x2="118.77" y1="147.88" y2="147.88" xlink:href="#m"/>
 <linearGradient id="aJ" x1="60.1" x2="118.76" y1="159.01" y2="159.01" xlink:href="#m"/>
 <linearGradient id="aI" x1="173.45" x2="143.84" y1="98.14" y2="68.52" xlink:href="#f"/>
 <linearGradient id="aH" x1="78.99" x2="103.41" y1="80.28" y2="80.28" xlink:href="#i"/>
 <linearGradient id="n" gradientUnits="userSpaceOnUse">
  <stop stop-color="#dadada" offset="0"/>
  <stop stop-color="#828282" offset=".758"/>
 </linearGradient>
 <linearGradient id="aG" x1="89.54" x2="111.7" y1="93.95" y2="93.95" xlink:href="#n"/>
 <linearGradient id="aF" x1="86.28" x2="146.77" y1="86.97" y2="86.97" xlink:href="#f"/>
 <linearGradient id="aE" x1="98.69" x2="187.4" y1="83.48" y2="83.48" xlink:href="#g"/>
 <linearGradient id="o" gradientUnits="userSpaceOnUse">
  <stop stop-color="#494949" offset="0"/>
  <stop stop-color="#505050" offset=".165"/>
  <stop stop-color="#5d5d5d" offset=".595"/>
  <stop stop-color="#616161" offset="1"/>
 </linearGradient>
 <linearGradient id="aD" x1="95.4" x2="158.21" y1="103.37" y2="40.56" xlink:href="#o"/>
 <linearGradient id="x" x1="47.82" x2="208.98" y1="62.47" y2="62.47" gradientUnits="userSpaceOnUse">
  <stop stop-color="#e6f6f9" offset="0"/>
  <stop stop-color="#71a6cd" offset="1"/>
 </linearGradient>
 <radialGradient id="w" cx="160.1" cy="225.54" r="102.76" gradientTransform="matrix(1 0 0 .9358 0 8.56)" gradientUnits="userSpaceOnUse">
  <stop stop-color="#428aff" offset="0"/>
  <stop stop-color="#06c" offset="1"/>
 </radialGradient>
 <linearGradient id="v" x1="153.98" x2="69.91" y1="86.97" y2="19.07" gradientUnits="userSpaceOnUse">
  <stop stop-color="#039" offset="0"/>
  <stop stop-color="#39f" offset="1"/>
 </linearGradient>
 <linearGradient id="u" x1="47.82" x2="208.98" y1="148.92" y2="148.92" gradientUnits="userSpaceOnUse">
  <stop stop-color="#fff" offset="0"/>
  <stop stop-color="#9cf" offset=".056"/>
  <stop stop-color="#39f" offset=".697"/>
  <stop stop-color="#06c" offset="1"/>
 </linearGradient>
 <linearGradient id="p" gradientUnits="userSpaceOnUse">
  <stop stop-color="#fff" offset="0"/>
  <stop stop-color="#a3daaf" offset="1"/>
 </linearGradient>
 <linearGradient id="t" x1="47.82" x2="208.98" y1="148.92" y2="148.92" xlink:href="#p"/>
 <linearGradient id="s" x1="66.55" x2="193.9" y1="66.13" y2="193.49" xlink:href="#p"/>
 <linearGradient id="r" x1="207.61" x2="48.75" y1="207.65" y2="48.79" gradientUnits="userSpaceOnUse">
  <stop stop-color="#039" offset="0"/>
  <stop stop-color="#06c" offset="1"/>
 </linearGradient>
 <linearGradient id="am" x1="79.25" x2="125.8" y1="120.83" y2="120.83" xlink:href="#f"/>
 <linearGradient id="an" x1="115.94" x2="167.68" y1="132.57" y2="132.57" xlink:href="#f"/>
 <linearGradient id="ao" x1="98.69" x2="187.4" y1="93.08" y2="93.08" xlink:href="#g"/>
 <linearGradient id="ap" x1="86.38" x2="184.93" y1="111.22" y2="111.22" xlink:href="#h"/>
 <linearGradient id="at" x1="78.99" x2="103.41" y1="82.12" y2="82.12" xlink:href="#i"/>
 <linearGradient id="au" x1="149.5" x2="186.36" y1="115.51" y2="115.51" xlink:href="#j"/>
 <linearGradient id="ay" x1="93.77" x2="138.12" y1="133.64" y2="133.64" xlink:href="#i"/>
 <linearGradient id="aA" x1="93.77" x2="139.05" y1="117.53" y2="117.53" xlink:href="#k"/>
 <linearGradient id="aB" x1="159.9" x2="159.9" y1="138.97" y2="84.95" xlink:href="#l"/>
 <linearGradient id="aC" x1="179.92" x2="143.17" y1="104.61" y2="67.85" xlink:href="#f"/>
 <linearGradient id="as" x1="84.63" x2="115.74" y1="105.51" y2="105.51" xlink:href="#n"/>
 <linearGradient id="q" gradientUnits="userSpaceOnUse">
  <stop stop-color="#fff" offset="0"/>
  <stop stop-color="#828282" offset="1"/>
 </linearGradient>
 <linearGradient id="ar" x1="95.35" x2="95.35" y1="90.18" y2="127.82" xlink:href="#q"/>
 <linearGradient id="ak" x1="88.33" x2="171.71" y1="138.93" y2="55.55" xlink:href="#o"/>
 <linearGradient id="Z" x1="109.91" x2="132.45" y1="159.86" y2="159.86" gradientTransform="matrix(.266 -.958 1.0022 .2783 -39.1 268.14)" xlink:href="#n"/>
 <linearGradient id="Y" x1="117.76" x2="117.76" y1="146.19" y2="179.51" gradientTransform="matrix(.266 -.958 1.0022 .2783 -39.1 268.14)" xlink:href="#q"/>
 <linearGradient id="X" x1="100.27" x2="154.56" y1="151.52" y2="151.52" gradientTransform="matrix(.266 -.958 1.0022 .2783 -39.1 268.14)" xlink:href="#f"/>
 <linearGradient id="R" x1="109.52" x2="174.59" y1="186.57" y2="121.5" gradientTransform="matrix(.266 -.958 1.0022 .2783 -39.1 268.14)" xlink:href="#o"/>
 <linearGradient id="G" x1="56.24" x2="83.37" y1="155.55" y2="155.55" gradientTransform="scale(-1) rotate(7.793 2216.7 -1499.7)" xlink:href="#n"/>
 <linearGradient id="F" x1="65.55" x2="65.55" y1="141.14" y2="176.67" gradientTransform="scale(-1) rotate(7.793 2216.7 -1499.7)" xlink:href="#q"/>
 <linearGradient id="E" x1="45.08" x2="110.63" y1="145.87" y2="145.87" gradientTransform="scale(-1) rotate(7.793 2216.7 -1499.7)" xlink:href="#f"/>
 <linearGradient id="y" x1="57.92" x2="133.71" y1="185.74" y2="109.94" gradientTransform="scale(-1) rotate(7.793 2216.7 -1499.7)" xlink:href="#o"/>
 <path d="m42.82 66.31.09 1.84-.09-.35-.81 124.86.04.34c3.13 24 40.2 42 86.34 42.01 48 0 85.6-19.9 85.58-45.32v-123.37c0-25.4-37.6-45.3-85.58-45.33-48 0-85.6 19.9-85.58 45.33z" fill="url(#r)"/>
 <path d="m208.62 70.08c.23-1.24.37-2.5.37-3.77 0-22.3-36.1-40.3-80.58-40.33-44.5 0-80.6 18.1-80.58 40.33 0 .51.04 1.02.08 1.52h-.08v124.52h.2c2.74 21 37.7 37.7 80.38 37.66 44.5 0 80.6-18.1 80.58-40.32 0-1.27-.13-2.53-.37-3.77v-115.83zm-152.22-3.77c0-15.3 29.6-32.3 72-32.33 42.4 0 72 17 72.01 32.33 0 .51-.04 1.01-.11 1.52h-143.8c-.06-.51-.1-1.02-.1-1.52z" fill="url(#s)"/>
 <path d="m208.62 185.92v-118.08h-160.8v124.52h.2c2.74 21 37.7 37.7 80.38 37.66 44.5 0 80.6-18.1 80.58-40.32 0-1.27-.13-2.53-.37-3.77z" fill="url(#t)"/>
 <path d="m208.62 185.92v-118.08h-160.8v124.52h.2c2.74 21 37.7 37.7 80.38 37.66 44.5 0 80.6-18.1 80.58-40.32 0-1.27-.13-2.53-.37-3.77z" fill="url(#u)"/>
 <path d="m56.4 66.31c0 15.3 29.6 32.3 72 32.33 42.4 0 72-17 72.01-32.33s-29.6-32.3-72.01-32.33c-42.4 0-72 17-72 32.33z" fill="url(#v)"/>
 <path d="m56.4 193.47c0 15.3 29.6 32.3 72 32.33 42.4 0 72-17 72.01-32.33 0-15.3-29.6-32.3-72.01-32.33-42.4 0-72 17-72 32.33z" fill="url(#w)"/>
 <path d="m128.4 28.99c44 0 79.7 17 80.54 38.09.01-.25.04-.51.04-.76 0-22.3-36.1-40.3-80.58-40.33-44.5 0-80.6 18.1-80.58 40.33 0 .26.03.51.04.76.82-21.1 36.6-38.1 80.54-38.09zm72.01 38.83c0-.25-.03-.49-.05-.74-.96 15.1-30.2 31.6-71.96 31.57-41.7 0-71-16.5-71.96-31.57-.02.25-.05.49-.05.74 0 14.7 29.6 31.1 72 31.13 42.4 0 72-16.4 72.01-31.13z" fill="url(#x)"/>
 <path d="m113.27 204.77s4.88-3.12 5.14-3.28c.28-.15 13.5-7.03 13.48-7.03.83-.43 1.38-1.16 1.65-1.99 6.46 1.12 21.8 3.78 21.76 3.78 1.73.3 3.45-.61 4.07-2.15.09-.24.16-.48.2-.73.2-1.34-.48-2.68-1.76-3.39 0 0-3.01-1.65-6.02-3.3.04-.13.11-.24.13-.38l2.63-17.94c.14-.92-.15-1.82-.75-2.54 5.13-1.62 6.34-2.52 6.98-4.01.12-.27.19-.53.23-.81.2-1.38-.52-2.77-1.88-3.46 0 0-1.12-.56-2.19-1.1 2.91-6.57 4.66-11.8 5.25-15.92.69-4.69-.15-7.83-2.47-9.67.04-.14.13-.27.14-.42.12-.81-.07-1.65-.6-2.37l-11.38-15.68c-.58-.8-1.49-1.33-2.51-1.46s-2.05.15-2.84.77c0 0-3.29 2.6-5.91 4.68-2.17-2.68-5.04-6.21-5.04-6.21-.6-.74-1.5-1.22-2.48-1.32-.99-.1-1.98.18-2.74.77 0 0-2.54 1.99-4.54 3.55-3.24-2.27-12-8.39-11.97-8.39-1.15-.81-2.69-.9-3.95-.25 0 0-17.5 9.09-19.9 10.36-2.59-.8-18.6-5.74-18.6-5.74-.99-.31-2.07-.2-2.97.29s-1.53 1.32-1.73 2.27l-5.82 27.46c-.02.07-.03.14-.04.2-.11.78.06 1.57.51 2.24 0 0 6.03 9.18 7.74 11.78-2.43 3.32-13.5 18.5-13.52 18.51-.32.44-.52.94-.6 1.46-.09.59-.01 1.2.24 1.76.47 1.06 1.48 1.83 2.69 2.04 0 0 26.9 4.74 31.81 5.6.05 2.31.1 5.04.1 5.04 0 .17.05.32.07.49-.03.1-.06.2-.07.3-.2 1.34.47 2.67 1.74 3.38 0 0 13.8 7.7 14.01 7.82.21.14 7.6 4.96 7.6 4.96 1.24.81 2.88.82 4.13.02z" fill="url(#y)" opacity=".15"/>
 <path d="m84.84 175.25 47.22 8.11 8.57-8.51 1.49-7.7-2.8-8.88z" fill="url(#z)" opacity=".3"/>
 <path d="m121.76 158.05 34.49-28.08-11.38-15.68-30.91 24.48z" fill="url(#A)" opacity=".3"/>
 <path d="m125.4 119.92-17.72-12.42-28.2 14.66 13.46 11.89z" fill="url(#B)" opacity=".3"/>
 <path d="m132.72 173.67-35.84 7.6-42.32-7.46 29.85-40.85 26.03 29.73z" fill="url(#C)" opacity=".3"/>
 <path d="m148.34 141.14-26.53-11.52-15.3-14.15-44.86 24.72 26.62 25.75z" fill="url(#D)" opacity=".3"/>
 <path d="m158.49 160.34c-1.11 2.6-57.5 15-57.5 15.03l-8.61-15.32 22.68-21.47 43.44 21.76z" fill="url(#E)" opacity=".3"/>
 <path d="m100.27 172.95-7.79-13.86-1.21 1.14 8.61 15.32s56.4-12.4 57.5-15.03l-2.42-1.21c-11.6 4.12-54.7 13.6-54.7 13.63z" fill="#fff" opacity=".3"/>
 <path d="m147.62 167.17s16.9-30.4 9.04-34.18c-7.88-3.76-33.4 2.92-33.42 2.92l1.98 21.53 22.41 9.73z" fill="url(#F)" opacity=".3"/>
 <path d="m140.88 166.3s13.2-24.9 7.16-27.87c-6-3-25.6 2.6-25.56 2.6l1.36 17.5z" fill="url(#G)" opacity=".3"/>
 <path d="m131.3 176.68-4.77 10.96 21.78-1.82 2.63-17.94-11.62-9.61z" fill="url(#H)" opacity=".3"/>
 <path d="m91.81 147.38-22.52 5.92-8.85-13.47 5.82-27.45 29.34 9.04z" fill="url(#I)" opacity=".3"/>
 <path d="m148.31 185.82.11-.75-17.12-8.39-4.77 10.96z" fill="url(#J)" opacity=".3"/>
 <path d="m126.94 184.8 3.44 4.91-19.16 12.25-21.79-14.23-.25-13.1 28.64-2.87z" fill="url(#K)" opacity=".3"/>
 <path d="m155.96 192.9-44.45-7.73-11.62-9.61 10.65 1.36 21.31 2.73z" fill="url(#L)" opacity=".3"/>
 <path d="m143.4 130.35-14.71-18.13-24.51 19.2z" fill="url(#M)" opacity=".3"/>
 <path d="m111.32 201.29 19.03-11.41-.2-.27-40.57-1.8z" fill="url(#N)" opacity=".3"/>
 <path d="m143.4 130.35-23.02 17.54-10.14-10.9-7.31-2.65 1.25-2.92z" fill="url(#O)" opacity=".3"/>
 <path d="m119.37 145.11-10.14-10.91-5.4-1.96-.9 2.1 7.31 2.65 10.14 10.9 23.02-17.54-4.84.14z" fill="#fff" opacity=".3"/>
 <path d="m106.75 115.7-.24-.23-37.46 20.65-5.13 6.27 22.67 21.93z" fill="url(#P)" opacity=".3"/>
 <path d="m84.42 132.96-28.94 39.6 54.04-10.94z" fill="url(#Q)" opacity=".3"/>
 <path d="m60.84 171.48 26.07-35.68-2.49-2.84-28.94 39.6z" fill="#fff" opacity=".3"/>
 <path d="m103.57 172.27s2.48 4.38 2.61 4.61c.11.25 5.31 11.9 5.31 11.9.32.73.97 1.27 1.75 1.6-1.82 5.13-6.12 17.3-6.12 17.26-.49 1.37.2 2.89 1.63 3.59.22.11.45.19.69.25 1.27.33 2.66-.04 3.49-1 0 0 1.94-2.24 3.89-4.48.12.05.22.12.35.15l17.13 4.45c.88.23 1.79.11 2.55-.28 1 4.39 1.73 5.5 3.1 6.21.25.13.5.22.76.29 1.32.34 2.75-.07 3.57-1.09 0 0 .67-.84 1.31-1.65 6.05 3.22 11 5.32 14.86 6.33 4.48 1.16 7.62.88 9.67-.77.13.05.25.14.39.17.77.2 1.61.15 2.37-.18l16.5-7.26c.84-.37 1.46-1.04 1.7-1.86s.08-1.69-.43-2.41c0 0-2.16-3.02-3.88-5.42 2.85-1.43 6.6-3.31 6.6-3.31.79-.4 1.35-1.06 1.56-1.86.21-.79.05-1.63-.44-2.33 0 0-1.64-2.33-2.94-4.16 2.57-2.35 9.5-8.68 9.5-8.68.91-.83 1.18-2.08.69-3.19 0 0-6.86-15.4-7.81-17.56 1.06-2 7.67-14.4 7.67-14.43.41-.77.43-1.66.05-2.46s-1.11-1.41-2.01-1.7l-26-8.28c-.06-.02-.13-.04-.19-.06-.74-.19-1.53-.15-2.23.12 0 0-9.6 3.74-12.31 4.79-2.95-2.41-16.4-13.4-16.45-13.41-.4-.32-.86-.55-1.35-.68-.56-.15-1.16-.16-1.74-.03-1.08.25-1.94.97-2.29 1.93 0 0-7.64 21.3-9.02 25.21-2.24-.26-4.9-.57-4.9-.57-.16-.02-.32-.01-.48 0-.1-.04-.19-.07-.29-.1-1.27-.33-2.65.04-3.48.98 0 0-9.03 10.2-9.17 10.41-.15.15-5.68 5.56-5.68 5.56-.93.9-1.12 2.24-.49 3.36z" fill="url(#R)" opacity=".15"/>
 <path d="m135.43 152.89-13.19 37.45 7.3 8.09 7.3 2.21 8.94-1.14z" fill="url(#S)" opacity=".3"/>
 <path d="m147.98 185.21 23.38 31.73 16.5-7.25-20.28-28.37z" fill="url(#T)" opacity=".3"/>
 <path d="m184.59 193.08 14.06-12.85-11.07-24.87-13.05 9.44z" fill="url(#U)" opacity=".3"/>
 <path d="m131.57 192.14-3.33-30.2 12-33.55 36.31 29.6-31.81 17.4z" fill="url(#V)" opacity=".3"/>
 <path d="m161.4 209.05 14.17-20.15 15.47-10.64-18.95-39.76-28.01 18.39z" fill="url(#W)" opacity=".3"/>
 <path d="m141.62 214.86c-2.4-1.24-8.11-48.8-8.11-48.82l15.85-5.05 18.29 21.25-26.02 32.62z" fill="url(#X)" opacity=".3"/>
 <path d="m135.93 165.77 14.33-4.57-.97-1.13-15.85 5.05s5.71 47.6 8.11 48.82l1.45-1.81c-2.7-9.95-7.07-46.4-7.07-46.36z" fill="#fff" opacity=".3"/>
 <path d="m136.21 205.12s27.6 17.7 32.17 11.77c4.54-5.94.93-27.6.93-27.63l-21.13-1.16z" fill="url(#Y)" opacity=".3"/>
 <path d="m137.81 199.74s22.7 13.9 26.26 9.42c3.59-4.5.36-21.2.36-21.17l-17.15-1.15z" fill="url(#Z)" opacity=".3"/>
 <path d="m128.81 190.59-10.1-5.31-.69 18 17.12 4.45 10.64-8.23z" fill="url(#aa)" opacity=".3"/>
 <path d="m161.72 162.16-3.22-19.12 14.07-5.48 26.01 8.28-12.09 22.76z" fill="url(#ab)" opacity=".3"/>
 <path d="m118.02 203.28.72.19 10.07-12.88-10.1-5.31z" fill="url(#ac)" opacity=".3"/>
 <path d="m121.42 185.99-5.16 2.17-9.73-17.2 16.27-15.94 12.75 1.48-.44 23.72z" fill="url(#ad)" opacity=".3"/>
 <path d="m110.29 208.6 12.51-35.24 10.64-8.24-2.53 8.51-5.05 17.02z" fill="url(#ae)" opacity=".3"/>
 <path d="m172.43 206.42 19.26-9.66-15.88-22.46z" fill="url(#af)" opacity=".3"/>
 <path d="m107.17 171.13 8.93 16.99.28-.13 6.33-32.85z" fill="url(#ag)" opacity=".3"/>
 <path d="m172.43 206.42-14.44-21.03 11.73-6.86 3.4-5.63 2.69 1.4z" fill="url(#ah)" opacity=".3"/>
 <path d="m160.81 184.92 11.73-6.86 2.51-4.15-1.93-1.01-3.4 5.63-11.73 6.86 14.44 21.03.42-3.96z" fill="#fff" opacity=".3"/>
 <path d="m190.79 178.42.25-.16-15.83-33.2-5.51-5-23.85 15.67z" fill="url(#ai)" opacity=".3"/>
 <path d="m176.55 157.99-35.2-28.7 4.54 45.47z" fill="url(#aj)" opacity=".3"/>
 <path d="m141.8 133.81 31.71 25.84 3.04-1.66-35.2-28.7z" fill="#fff" opacity=".3"/>
 <path d="m115.62 46.04s-5.02 3.93-5.28 4.14c-.3.19-14.1 9.2-14.13 9.2-.87.56-1.37 1.41-1.54 2.32-7.53-.31-25.3-1.04-25.33-1.04-2.02-.09-3.82 1.1-4.26 2.81-.07.26-.1.53-.1.79 0 1.43.99 2.76 2.56 3.33 0 0 3.69 1.33 7.38 2.66-.02.14-.08.27-.08.41v19.21c0 .98.48 1.9 1.27 2.57-5.55 2.4-6.78 3.5-7.26 5.15-.09.29-.13.59-.13.88 0 1.48 1.05 2.84 2.71 3.38 0 0 1.36.44 2.67.86-2.21 7.29-3.32 13.1-3.32 17.44 0 5.02 1.48 8.21 4.41 9.83-.02.15-.09.3-.09.46 0 .86.36 1.72 1.07 2.41l15.51 14.94c.79.76 1.91 1.19 3.09 1.19s2.3-.44 3.1-1.19c0 0 3.3-3.18 5.93-5.71 2.91 2.52 6.75 5.85 6.75 5.85.8.7 1.9 1.08 3.04 1.06 1.14-.03 2.21-.45 2.98-1.18 0 0 2.55-2.43 4.56-4.35 4.05 1.95 15 7.21 14.98 7.21 1.43.69 3.2.59 4.52-.27 0 0 18.3-11.9 20.87-13.56 3.07.49 22.1 3.52 22.07 3.52 1.17.19 2.38-.07 3.32-.71s1.52-1.59 1.59-2.62l2.05-29.64c.01-.07.01-.15.01-.22 0-.83-.33-1.64-.94-2.29 0 0-8.38-8.84-10.74-11.34 2.2-3.82 12.3-21.3 12.28-21.27.29-.51.44-1.06.44-1.61 0-.63-.19-1.26-.57-1.82-.71-1.05-1.98-1.72-3.39-1.78 0 0-31.4-1.36-37.03-1.6-.44-2.42-.95-5.28-.95-5.28-.03-.17-.1-.34-.16-.5.01-.11.03-.22.03-.33 0-1.43-.98-2.74-2.54-3.32 0 0-16.9-6.23-17.19-6.33-.26-.11-9.46-4.19-9.46-4.19-1.54-.68-3.41-.47-4.69.54z" fill="url(#ak)" opacity=".15"/>
 <path d="m152.78 73.23-54.93-2.16-8.32 10.1-.42 8.29 4.66 8.96z" fill="url(#al)" opacity=".3"/>
 <path d="m113.73 96.28-34.48 34.16 15.52 14.94 31.03-29.89z" fill="url(#am)" opacity=".3"/>
 <path d="m115.94 136.84 22.18 10.67 29.56-19.21-17.24-10.67z" fill="url(#an)" opacity=".3"/>
 <path d="m98.69 81.34 39.43-12.81 49.28 2.13-27.11 46.97-34.49-27.75z" fill="url(#ao)" opacity=".3"/>
 <path d="m86.38 117.63 32.03 8.54 19.71 12.8 46.81-32.02-34.49-23.48z" fill="url(#ap)" opacity=".3"/>
 <path d="m71.67 98.82c.83-2.89 62.8-23.5 62.78-23.54l12.32 14.94-22.18 25.61-52.92-17.02z" fill="url(#aq)" opacity=".3"/>
 <path d="m135.65 77.73 11.14 13.51 1.18-1.36-12.32-14.94s-62 20.6-62.78 23.54l2.95.95c12.4-5.89 59.8-21.7 59.83-21.7z" fill="#fff" opacity=".3"/>
 <path d="m82.87 90.18s-14.2 34.3-4.58 37.14c9.58 2.88 37.5-7.57 37.46-7.57l-5.83-22.36z" fill="url(#ar)" opacity=".3"/>
 <path d="m90.66 90.18s-10.8 27.9-3.5 30.25 28.6-6.17 28.58-6.17l-4.45-18.21-20.64-5.87z" fill="url(#as)" opacity=".3"/>
 <path d="m99.81 77.99 3.6-12.16-24.43 4.84v19.21l14.78 8.54z" fill="url(#at)" opacity=".3"/>
 <path d="m149.5 103.47 24.58-9.27 12.28 12.97-2.04 29.64-34.82-5.56z" fill="url(#au)" opacity=".3"/>
 <path d="m78.99 70.66v.81l20.83 6.51 3.6-12.16z" fill="url(#av)" opacity=".3"/>
 <path d="m103.41 68.86-4.72-4.69 19.72-15.45 27.1 12.02 2.46 13.74-32.03 6.87z" fill="url(#aw)" opacity=".3"/>
 <path d="m69.13 64.26 51.74 2.13 14.78 8.54h-36.96z" fill="url(#ax)" opacity=".3"/>
 <path d="m93.77 128.3 19.71 17.08 24.64-23.48z" fill="url(#ay)" opacity=".3"/>
 <path d="m118.41 49.43-19.72 14.55.27.26 46.36-3.56z" fill="url(#az)" opacity=".3"/>
 <path d="m93.77 128.3 23.22-21.53 13.32 10.09 8.74 1.8-.93 3.24z" fill="url(#aA)" opacity=".3"/>
 <path d="m118.6 109.56 13.32 10.09 6.46 1.34.67-2.33-8.74-1.8-13.32-10.09-23.22 21.53 5.47-.79z" fill="#fff" opacity=".3"/>
 <path d="m137.81 138.77.31.2 39.09-26.74 4.78-7.28-29.38-20z" fill="url(#aB)" opacity=".3"/>
 <path d="m160.29 117.63 26.28-45.53-59.53 18.78z" fill="url(#aC)" opacity=".3"/>
 <path d="m180.66 73.97-23.67 41.01 3.3 2.66 26.28-45.53z" fill="#fff" opacity=".3"/>
 <path d="m187.6 67.06s-31.4-1.36-37.03-1.6c-.44-2.42-.95-5.28-.95-5.28-.03-.17-.1-.34-.16-.5.01-.11.03-.22.03-.33 0-1.43-.98-2.74-2.54-3.32 0 0-16.9-6.23-17.19-6.33-.26-.11-9.46-4.19-9.46-4.19-1.54-.68-3.41-.47-4.69.54 0 0-5.02 3.93-5.28 4.14-.3.19-14.1 9.2-14.13 9.2-.87.56-1.37 1.41-1.54 2.32-7.53-.31-25.3-1.04-25.33-1.04-2.02-.09-3.82 1.1-4.26 2.81-.07.26-.1.53-.1.79 0 1.43.99 2.76 2.56 3.33 0 0 3.69 1.33 7.38 2.66-.02.14-.08.27-.08.41v16.71c12.8 6.62 31.4 11.3 53.58 11.28 22.5 0 41.4-4.8 54.18-11.58 3.7-6.42 8.54-14.8 8.54-14.79.29-.51.44-1.06.44-1.61 0-.63-.19-1.26-.57-1.82-.71-1.05-1.98-1.72-3.39-1.78z" fill="url(#aD)" opacity=".5"/>
 <path d="m152.78 73.23-54.93-2.16-8.32 10.1-.42 8.29 4.66 8.96z" fill="url(#al)"/>
 <path d="m98.69 81.34 27.11 8.54 10.64 8.56c15.6-.81 29.2-3.96 39.76-8.38l11.19-19.4-49.28-2.13z" fill="url(#aE)"/>
 <path d="m71.67 98.82c.83-2.89 62.8-23.5 62.78-23.54l12.32 14.94-22.18 25.61-52.92-17.02z" fill="url(#aq)" opacity=".5"/>
 <path d="m86.28 92.21c11.5 3.94 25.9 6.44 42.13 6.44 3.93 0 7.75-.15 11.44-.43l6.92-8-12.32-14.94s-29.6 9.88-48.17 16.92z" fill="url(#aF)"/>
 <path d="m86.43 92.26c1.3.44 2.65.87 4.02 1.27 18.6-6.93 45.2-15.8 45.21-15.81l11.14 13.51 1.18-1.36-12.32-14.94s-30.8 10.3-49.23 17.33z" fill="#fff"/>
 <path d="m111.7 97.72-.41-1.67-20.64-5.87s-.46 1.19-1.12 3.08c6.61 2.01 14.1 3.55 22.16 4.46z" fill="url(#aG)" opacity=".5"/>
 <path d="m78.99 89.37c4.68 2.07 10 3.89 15.87 5.35l4.96-16.74 3.6-12.16-24.43 4.84z" fill="url(#aH)"/>
 <path d="m78.99 70.66v.81l20.83 6.51 3.6-12.16z" fill="url(#av)"/>
 <path d="m103.41 68.86-4.72-4.69 19.72-15.45 27.1 12.02 2.46 13.74-32.03 6.87z" fill="url(#aw)"/>
 <path d="m69.13 64.26 51.74 2.13 14.78 8.54h-36.96z" fill="url(#ax)"/>
 <path d="m118.41 49.43-19.72 14.55.27.26 46.36-3.56z" fill="url(#az)"/>
 <path d="m118.6 109.56 13.32 10.09 6.46 1.34.67-2.33-8.74-1.8-13.32-10.09-23.22 21.53 5.47-.79z" fill="#fff" opacity=".5"/>
 <path d="m136.44 98.44c15.6-.81 29.2-3.96 39.76-8.38l10.37-17.96-59.52 18.78 9.4 7.56z" fill="url(#aI)"/>
 <path d="m170.03 92.38c2.16-.73 4.21-1.5 6.17-2.32l10.37-17.96-5.91 1.86z" fill="#fff"/>
 <path d="m130.37 99.12 2.81-.46s-1.04.06-2.81.46zm0 0-15.42 2.54h-10.18s-26.8-15.5-31.09-5.49c-7.06 18-3.38 102-2.37 121.96 5.57 2.8 12 5.19 18.96 7.08-.26-6.78-.61-15.1-1.04-25.16-3.66-84.4 30.9-98.6 41.15-100.92z" fill="url(#aJ)"/>
 <path d="m60.28 82.18s-3.59 104-2.56 126.86c1.73 1.58 3.66 3.1 5.78 4.54.03-17.7.39-126 4.82-123.9 4.82 2-8.04-7.49-8.04-7.49z" fill="url(#aK)" opacity=".8"/>
 <path d="m128.4 25.99c-44.5 0-80.6 18.1-80.58 40.33 0 22.3 36.1 40.3 80.58 40.33 44.5 0 80.6-18 80.58-40.33 0-22.3-36.1-40.3-80.58-40.33zm0 72.66c-42.4 0-72-17-72-32.33s29.6-32.3 72-32.33c42.4 0 72 17 72.01 32.33s-29.6 32.3-72.01 32.33z" fill="url(#aL)"/>
 <path d="m0 256v-256h256v256" fill="none"/>
 <g transform="translate(-5.44 4.94) scale(1.0667)" filter="url(#aM)">
  <path d="m67.41 70.28-18.28 10.5 10.05 8.99 19.98-10.62z" fill="#de972b"/>
  <path d="m68.43 72-40.01 23v-33.87l40.01-23z" fill="url(#aN)"/>
  <path d="m59.41 89.14-30.99-28v33.87l30.99 28" fill="url(#aO)" stroke="url(#aP)" stroke-linecap="round" stroke-linejoin="round" stroke-width="2.5"/>
  <path d="m99.42 101v-33.87l-30.99-29v33.87z" fill="url(#aQ)"/>
  <path d="m59.41 89.14 40.01-22v33.87l-40.01 22" fill="url(#aR)" stroke="url(#aS)" stroke-linecap="round" stroke-linejoin="round" stroke-width="2.5"/>
  <path d="m59.59 117.28.13-27.64" fill="none" stroke="#fff" stroke-linecap="round" stroke-opacity=".78" stroke-width="1.5"/>
  <path d="m79.41 90.8 38.44-21.23-18.43-2.43-40.01 22z" fill="url(#aT)" stroke="url(#aU)" stroke-linejoin="round" stroke-width="2.5"/>
  <path d="m30.32 74.71v19.38" fill="none" stroke="#fff" stroke-linecap="round"/>
  <g stroke-width="2.5">
   <g stroke-linejoin="round">
    <path d="m41 84.65-30.61-27.48 18.02 3.96 30.99 28z" fill="url(#aV)" stroke="url(#aW)"/>
    <path d="m59.77 21.88-40 23 8.65 16.25 40-23z" fill="url(#aX)" stroke="url(#aY)"/>
    <path d="m68.42 38.14 31 29 13.58-13.41-31-29z" fill="url(#aZ)" stroke="url(#ba)"/>
   </g>
   <path d="m31.16 94.41 28.59 25.6 37.26-20.55" fill="none" stroke="url(#bb)" stroke-linecap="square"/>
  </g>
 </g>
 <g stroke-linejoin="round" stroke-width="4">
  <path transform="translate(-5.44 4.94) scale(1.0667)" d="m46.75 3.68a2.32 2.32 0 0 0-2.32 2.29l-0.35 29.27h-14.49a2.32 2.32 0 0 0-1.61 3.98l35.03 33.84a2.32 2.32 0 0 0 3.22 0l35.03-33.84a2.32 2.32 0 0 0-1.61-3.98h-14.46l-0.38-29.28a2.32 2.32 0 0 0-2.32-2.29z" fill="none" filter="url(#bc)" stroke="url(#bd)"/>
  <path transform="translate(-5.44 4.94) scale(1.0667)" d="m46.75 6-.38 31.56h-16.78l35.03 33.84 35.03-33.84h-16.75l-.41-31.56z" fill="url(#be)" stroke="url(#bf)"/>
 </g>
</svg>
